<?xml version="1.0" encoding="utf-8"?>
<!-- Generator: Adobe Illustrator 21.0.0, SVG Export Plug-In . SVG Version: 6.00 Build 0)  -->
<svg version="1.1" id="Layer_1" xmlns="http://www.w3.org/2000/svg" xmlns:xlink="http://www.w3.org/1999/xlink" x="0px" y="0px"
	 width="73px" height="39px" viewBox="0 0 73 39" style="enable-background:new 0 0 73 39;" xml:space="preserve">
<style type="text/css">
	.st0{fill:#000;}
	.st1{fill:#88CCCD;}
</style>
<g>
	<path class="st1" d="M72.6,19.5C72.6,8.8,56.3,0,36.3,0c0,0,0,0,0,0h0h0C16.3,0,0,8.7,0,19.5C0,30.3,16.3,39,36.3,39h0h0h0
		C56.3,39,72.6,30.2,72.6,19.5 M71.2,18.8h-9.8c-0.2-3.8-1.7-7.3-4.3-10.2c1.9-0.9,3.1-1.7,3.7-2C67,9.7,70.9,14,71.2,18.8
		 M54.9,30.8c-4.2,4-10.7,6.7-17.9,6.8V20.2h18.7h4.4c-0.2,3.6-1.7,6.9-4.2,9.6c-3.4-1.4-8.4-3-15.1-3.5l-0.1,1.3
		C46.9,28.1,51.6,29.5,54.9,30.8 M31.8,26.3c-6.6,0.5-11.7,2.1-15.1,3.5c-2.5-2.8-4-6.1-4.2-9.7h4.3h18.7v17.5
		c-7.2-0.2-13.6-2.8-17.8-6.8c3.3-1.3,8-2.7,14.2-3.2L31.8,26.3z M17.7,8.2c4.2-4,10.7-6.7,17.9-6.8v17.5H16.9h-4.3
		c0.2-3.6,1.7-6.9,4.2-9.6c3.4,1.4,8.4,3,15.1,3.5l0.1-1.3C25.7,10.9,21,9.5,17.7,8.2 M55.7,18.8H37V1.3c7.2,0.2,13.7,2.8,17.9,6.8
		c-3.3,1.3-8.1,2.8-14.2,3.2l0.1,1.3c6.7-0.5,11.7-2.1,15.1-3.5c2.5,2.8,4,6.1,4.2,9.7H55.7z M59.4,5.9c-0.7,0.4-1.8,1-3.2,1.7
		c-2.1-2.1-4.7-3.8-7.6-5.1C52.6,3.3,56.3,4.4,59.4,5.9 M16.4,7.6c-1.5-0.7-2.5-1.3-3.2-1.7c3.2-1.5,6.9-2.6,10.9-3.4
		C21.1,3.8,18.5,5.5,16.4,7.6 M11.8,6.6c0.5,0.4,1.8,1.2,3.7,2.1c-2.5,2.9-4.1,6.4-4.2,10.2H1.4C1.7,14,5.6,9.7,11.8,6.6 M1.4,20.2
		h9.8c0.2,3.8,1.7,7.3,4.3,10.2c-1.9,0.9-3.1,1.7-3.7,2C5.6,29.3,1.7,25,1.4,20.2 M13.2,33.1c0.7-0.4,1.8-1,3.2-1.7
		c2.1,2.1,4.7,3.8,7.6,5.1C20,35.7,16.4,34.6,13.2,33.1 M56.2,31.4c1.5,0.7,2.5,1.3,3.2,1.7c-3.2,1.5-6.8,2.6-10.9,3.4
		C51.5,35.2,54.1,33.5,56.2,31.4 M60.8,32.4c-0.5-0.4-1.8-1.2-3.7-2.1c2.5-2.9,4.1-6.4,4.3-10.2h9.8C70.9,25,67,29.3,60.8,32.4"/>
	<path class="st0" d="M36.1,0c-0.1,0-0.3,0-0.4,0l-5.2,13.8l-14.2,5.1v1.2l14.2,5.1L35.6,39c0.2,0,0.3,0,0.5,0h0.3
		c0.2,0,0.3,0,0.5,0l5.2-13.8l14.2-5.1v-1.2l-14.2-5.1L36.9,0c-0.1,0-0.3,0-0.4,0H36.1z M36.3,2.2l4.6,12.1l-4.5,4.4l-4.6-4.4
		L36.3,2.2z M18.4,19.5l11.3-4L28,19.2v0.5l1.8,3.8L18.4,19.5z M29.4,19.5l1.9-4l4.1,4l-4.2,4L29.4,19.5z M36.3,36.8l-4.5-12
		l4.6-4.4l4.5,4.4L36.3,36.8z M54.2,19.5l-11.2,4l1.7-3.7v-0.5l-1.7-3.7L54.2,19.5z M43.2,19.5l-1.8,4l-4.1-4l4.1-4L43.2,19.5z"/>
</g>
</svg>
