<?xml version="1.0" encoding="UTF-8"?> <svg xmlns="http://www.w3.org/2000/svg" width="65" height="50" viewBox="0 0 65 50" fill="none"> <path fill-rule="evenodd" clip-rule="evenodd" d="M36.8462 16.623V19.1072H32.3672H27.8882V20.7924V22.4774L30.6253 22.5551C33.5219 22.6371 34.3894 22.788 35.807 23.4565C38.0383 24.5087 39.2621 26.7819 39.0825 29.541C38.8982 32.3729 37.2613 34.4765 34.5356 35.3847L33.3625 35.7757L27.8526 35.8272L22.3428 35.8786V25.0088V14.1388H29.5945H36.8462V16.623ZM46.1916 22.5142L46.2236 30.8186L48.0756 30.8582L49.9276 30.8978V22.5183V14.1388H52.7714H55.6152V22.5142V30.8896H57.4637H59.3122V22.5142V14.1388H62.156H64.9998V24.9984V35.858H52.7714H40.5431V24.9954V14.1328L43.3513 14.1713L46.1596 14.2098L46.1916 22.5142ZM27.9948 27.2784C27.9362 27.3387 27.8882 28.1758 27.8882 29.1388V30.8896H29.79C32.1415 30.8896 32.4789 30.8241 33.0892 30.2495C33.4925 29.8699 33.5758 29.6898 33.5758 29.1977C33.5758 28.8712 33.4787 28.4168 33.3601 28.1877C32.9796 27.4532 32.4538 27.2954 30.1632 27.2288C29.0293 27.1957 28.0534 27.218 27.9948 27.2784Z" fill="#3EA7E2"></path> <path fill-rule="evenodd" clip-rule="evenodd" d="M41.1832 0.291654C48.0788 1.51631 53.8429 5.2259 57.7463 10.9508C58.2889 11.7468 58.6969 12.4339 58.6528 12.4779C58.6087 12.5219 57.1985 12.5637 55.5188 12.5708L52.465 12.5839L51.085 11.1961C48.1512 8.24601 44.6779 6.38866 40.62 5.6001C38.7967 5.24577 35.4797 5.21738 33.6814 5.54062C29.6551 6.26445 26.1344 8.09838 23.1299 11.0369L21.5706 12.5618L18.4732 12.565C16.7171 12.5669 15.3757 12.5125 15.3757 12.4397C15.3757 12.369 15.7537 11.7481 16.2155 11.0599C20.2862 4.99338 26.7963 1.02031 34.1929 0.0879474C35.6392 -0.094466 39.6714 0.0230735 41.1832 0.291654ZM20.4946 14.2226C20.4946 14.2691 20.3745 14.4767 20.2279 14.684C19.8253 15.2528 18.8668 17.2182 18.503 18.2204L18.1806 19.1088L10.0068 19.0721L1.83283 19.0355L1.01396 16.8937C0.563641 15.7156 0.15129 14.6137 0.0975424 14.4449L0 14.138H10.2473C15.8833 14.138 20.4946 14.1761 20.4946 14.2226ZM17.4375 24.9978V27.482L11.2805 27.4819H5.12353L4.90058 26.9496C4.77801 26.6568 4.33935 25.5389 3.92572 24.4653L3.17368 22.5134L10.3055 22.5136H17.4375V24.9978ZM18.3144 31.1373C18.7226 32.3185 19.3376 33.6964 19.8638 34.6085C20.2107 35.21 20.4946 35.7371 20.4946 35.7796C20.4946 35.8224 17.7479 35.8573 14.3908 35.8573H8.28683L7.83637 34.6862C7.58868 34.042 7.16808 32.9496 6.9019 32.2587C6.63558 31.5677 6.41775 30.9767 6.41775 30.9456C6.41775 30.9144 9.07513 30.8888 12.323 30.8888C17.8197 30.8888 18.2344 30.906 18.3144 31.1373ZM23.0126 38.8029C24.6997 40.4777 26.4816 41.7595 28.3861 42.6688C31.1769 44.001 33.2851 44.5165 36.3487 44.6158C39.9416 44.7322 42.5377 44.1745 45.7333 42.5996C47.8828 41.5402 49.5206 40.3513 51.189 38.6398L52.3791 37.4188H55.573H58.7668L58.4479 37.9511C56.9895 40.3846 53.8429 43.7596 51.5274 45.3739C46.7425 48.7098 40.7586 50.3845 35.2642 49.9253C27.3235 49.2618 20.6874 45.4207 16.2398 38.9137C15.7646 38.2185 15.3757 37.5975 15.3757 37.5342C15.3757 37.4708 16.7803 37.4188 18.4969 37.4188H21.6181L23.0126 38.8029Z" fill="#3EA7E2"></path> </svg>