<svg id="Layer_1" data-name="Layer 1" xmlns="http://www.w3.org/2000/svg" xmlns:xlink="http://www.w3.org/1999/xlink" viewBox="0 0 478.89 199.93"><defs><style>.cls-1{fill:none;}.cls-2{clip-path:url(#clip-path);}.cls-3{fill:url(#linear-gradient);}.cls-4{clip-path:url(#clip-path-2);}.cls-5{fill:url(#linear-gradient-2);}.cls-6{clip-path:url(#clip-path-3);}.cls-7{fill:url(#linear-gradient-3);}.cls-8{clip-path:url(#clip-path-4);}.cls-9{fill:url(#linear-gradient-4);}.cls-10{clip-path:url(#clip-path-5);}.cls-11{fill:url(#linear-gradient-5);}.cls-12{clip-path:url(#clip-path-6);}.cls-13{fill:url(#linear-gradient-6);}.cls-14{fill:#58595b;}</style><clipPath id="clip-path"><path class="cls-1" d="M138.28,135.11l-1.39.57-9.36,3.92-85.75,36,49.51,20.82a23.56,23.56,0,0,0,17.79.17l53-21.58-15.51-37.08a5.09,5.09,0,0,0-5-3.39,10.29,10.29,0,0,0-3.2.59"/></clipPath><linearGradient id="linear-gradient" x1="-842.62" y1="247.92" x2="-840.21" y2="247.92" gradientTransform="translate(-173.97 18088.39) rotate(107.32) scale(20.46)" gradientUnits="userSpaceOnUse"><stop offset="0" stop-color="#7a7b7d"/><stop offset="0.23" stop-color="#606062"/><stop offset="0.57" stop-color="#3f3f40"/><stop offset="0.75" stop-color="#323233"/><stop offset="1" stop-color="#323233"/></linearGradient><clipPath id="clip-path-2"><path class="cls-1" d="M53.24,135.12l18.31,53,20.14,8.42a23,23,0,0,0,17.58.06L162,175l-61.22-24.5c-.75-.2-30.65-12.73-30.65-12.73h0a13.9,13.9,0,0,1-6.82-6.81l-.25-.62Z"/></clipPath><linearGradient id="linear-gradient-2" x1="-884.08" y1="251.1" x2="-881.67" y2="251.1" gradientTransform="translate(-23853.6 15558.77) rotate(163.15) scale(31.01)" xlink:href="#linear-gradient"/><clipPath id="clip-path-3"><path class="cls-1" d="M18,141.62l8.29,20.19a23,23,0,0,0,12.39,12.47l52.57,22.11L63.9,132.13a9.12,9.12,0,0,1-.58-1.12h0l-2.88-7-7.83-19.08a13.9,13.9,0,0,1,0-9.64l.26-.61L42.56,91.17Z"/></clipPath><linearGradient id="linear-gradient-3" x1="-904.5" y1="265.3" x2="-902.09" y2="265.3" gradientTransform="translate(-28548.1 -5824.42) rotate(-151.85) scale(31.03)" xlink:href="#linear-gradient"/><clipPath id="clip-path-4"><path class="cls-1" d="M13,71,4.56,91.12a23,23,0,0,0-.06,17.59l21.64,52.72,26-64.69a11.09,11.09,0,0,1,.38-1.2h0l2.93-7,7.95-19a14,14,0,0,1,6.82-6.82l.62-.25L66,52.7Z"/></clipPath><linearGradient id="linear-gradient-4" x1="-908.99" y1="289.58" x2="-906.58" y2="289.58" gradientTransform="translate(-16723.25 -24245.58) rotate(-106.85) scale(31.01)" xlink:href="#linear-gradient"/><clipPath id="clip-path-5"><path class="cls-1" d="M39.14,25.79A23,23,0,0,0,26.67,38.18l-22,52.57L68.78,63.4c.36-.21.73-.4,1.11-.58h0l7-2.87L96,52.12a14,14,0,0,1,9.64,0l.61.26,3.56-10.32L59.31,17.51Z"/></clipPath><linearGradient id="linear-gradient-5" x1="-894.88" y1="310.2" x2="-892.47" y2="310.2" gradientTransform="translate(4655.7 -28926.32) rotate(-61.85) scale(31.01)" xlink:href="#linear-gradient"/><clipPath id="clip-path-6"><path class="cls-1" d="M100.88,2.28A23.21,23.21,0,0,0,92.29,4L41.66,24.77l86.71,36.82,9.41,3.92,1.38.58c2.2.76,6.41,1.53,8.22-2.8l15.5-37.08-53-22.15a23.21,23.21,0,0,0-8.74-1.78Z"/></clipPath><linearGradient id="linear-gradient-6" x1="-885.43" y1="278.19" x2="-883.02" y2="278.19" gradientTransform="matrix(-90.39, -39.99, 39.99, -90.39, -91000.33, -10203.04)" xlink:href="#linear-gradient"/></defs><title>logo-3</title><g class="cls-2"><polygon class="cls-3" points="180.3 140.22 151.34 233.09 23.44 193.2 52.4 100.34 180.3 140.22"/></g><g class="cls-4"><polygon class="cls-5" points="181.05 193.17 62.39 229.13 34.19 136.08 152.85 100.12 181.05 193.17"/></g><g class="cls-6"><polygon class="cls-7" points="74.96 226.86 -25.77 172.98 34.29 60.7 135.01 114.57 74.96 226.86"/></g><g class="cls-8"><polygon class="cls-9" points="7.96 180.48 -28 61.82 65.05 33.62 101.01 152.28 7.96 180.48"/></g><g class="cls-10"><polygon class="cls-11" points="-25.75 74.45 28.1 -26.22 140.29 33.79 86.44 134.46 -25.75 74.45"/></g><g class="cls-12"><polygon class="cls-13" points="143 112.45 17.49 56.91 61.5 -42.56 187.01 12.97 143 112.45"/></g><path class="cls-14" d="M233.08,140.48a101.1,101.1,0,0,1-11,.49c-23.32,0-27.86-11.42-27.86-32.81,0-11,.77-26.51,12.67-31.54,4.65-1.93,10.26-2.22,15.19-2.22a106.39,106.39,0,0,1,11,.48c2.42.19,5,.39,5,3.39v3.19c0,3-.29,4.64-3.68,4.64s-7-.48-10.45-.48c-2.9,0-7.93.19-10.55,1.35-6.77,2.91-5.9,15.29-5.9,21.29,0,7.55-.58,19.16,9,21a38.72,38.72,0,0,0,7.45.48c3.48,0,7-.48,10.45-.48,4.74,0,3.68,4.16,3.68,7.83,0,3-2.62,3.2-5,3.39"/><path class="cls-14" d="M281.86,139.71h-5.42c-2.23,0-2.81-1.45-2.81-3.48-4.54,2.8-8.9,4.74-14.32,4.74-9.48,0-13.84-5.13-13.84-14.42,0-10.55,6.3-14.12,15.78-15.19a87.05,87.05,0,0,1,12.29-.77c0-3.87.58-9.29-4.84-9.29a61.75,61.75,0,0,0-13.92,2,9.11,9.11,0,0,1-2.32.29c-3.38,0-2.8-3.39-2.8-5.81,0-2.13.58-3.38,2.71-4.06a67.73,67.73,0,0,1,15.86-1.84c4.65,0,10.55.77,13.84,4.45,3.87,4.26,3.68,10.26,3.68,15.68V135.5c0,2.81-1,4.16-3.87,4.16m-8.25-20.38c-1.55-.09-3.19-.19-4.74-.19a44.28,44.28,0,0,0-6.09.29c-4.07.58-5.71,1.94-5.71,6.1,0,2.32.38,6.48,3.58,6.48,4.83,0,9.09-2,13-4.84Z"/><path class="cls-14" d="M322.14,103.33c-5.61,0-8.42.87-13.07,3.77v28.35c0,2.81-1,4.26-3.87,4.26h-3.67c-3.39,0-5.13-.39-5.13-4.26V97.52c0-3,1.26-4.16,4.26-4.16h4.54c2.23,0,3.1,1.35,3.58,3.39,3.87-2.32,8.13-4.45,12.68-4.45,4.74,0,4.26,2.9,4.26,6.58,0,2.61-.58,4.45-3.58,4.45"/><path class="cls-14" d="M353,141a91.23,91.23,0,0,1-15.48-1.16c-2.61-.49-4.64-1.26-4.64-4.36V77.28c0-3.1,1.25-4.16,4.25-4.16h4.36c2.61,0,3.77,1.74,3.77,4.16v15.6a84.66,84.66,0,0,1,11.9-1c15.19,0,17.42,10.93,17.42,23.9,0,16-4.26,25.16-21.58,25.16m8.15-34.9c-.87-3.58-2.42-3.87-5.9-3.87a50.22,50.22,0,0,0-10,1.26v26.51a54.32,54.32,0,0,0,7.94.87c3.19,0,6.67-.58,7.74-4.07.87-2.9,1.06-8,1.06-11.12a40.08,40.08,0,0,0-.87-9.58"/><path class="cls-14" d="M405.14,141c-16.16,0-22.26-9.29-22.26-24.48s6-24.58,22.26-24.58,22.15,9.29,22.15,24.58S421.39,141,405.14,141m7.9-35.69c-1.74-3.19-4.65-3.09-7.93-3.09s-6.2-.1-7.94,3.09-1.84,7.84-1.84,11.23.2,8.22,1.84,11.22,4.74,3,7.94,3,6.19.1,7.93-3,1.74-7.93,1.74-11.22-.1-8.23-1.74-11.23"/><path class="cls-14" d="M469.88,139.71c-3.38,0-5.12-.39-5.12-4.26V110.39c0-1.55.09-5.51-.68-6.87a3.12,3.12,0,0,0-3-1.45c-4.74,0-8.32,2.51-11.9,5.32v28.06c0,5.13-3.29,4.26-7.26,4.26-3.39,0-5.13-.39-5.13-4.26V97.52c0-3,1.26-4.16,4.26-4.16h4.36c2.12,0,2.8,1.07,3.28,3,4.26-2.81,8.42-4.45,13.55-4.45,8.8,0,14.9,4.26,14.9,13.45v30.09c0,5-3.38,4.26-7.26,4.26"/></svg>