<?xml version="1.0" encoding="UTF-8"?>
<!DOCTYPE svg PUBLIC "-//W3C//DTD SVG 1.1//EN" "http://www.w3.org/Graphics/SVG/1.1/DTD/svg11.dtd">
<!-- Creator: CorelDRAW -->
<svg xmlns="http://www.w3.org/2000/svg" xml:space="preserve" width="48.1927mm" height="26.1136mm" version="1.1" style="shape-rendering:geometricPrecision; text-rendering:geometricPrecision; image-rendering:optimizeQuality; fill-rule:evenodd; clip-rule:evenodd"
viewBox="0 0 16289.13 8826.39"
 xmlns:xlink="http://www.w3.org/1999/xlink"
 xmlns:xodm="http://www.corel.com/coreldraw/odm/2003">
 <defs>
  <style type="text/css">
   <![CDATA[
    .fil0 {fill:#1F1B20}
    .fil1 {fill:white;fill-rule:nonzero}
    .fil2 {fill:#E31F25;fill-rule:nonzero}
   ]]>
  </style>
 </defs>
 <g id="Слой_x0020_1">
  <metadata id="CorelCorpID_0Corel-Layer"/>
  <g id="Логотип_x0020_2_x002c_5.cdr">
   <polygon class="fil0" points="-0,0 16289.13,0 16289.13,8826.39 -0,8826.39 "/>
   <polygon class="fil1" points="11777.54,4413.2 12956.21,4413.2 12956.21,5001.11 12366.54,5001.11 12366.54,5590.28 12857.68,5590.28 12858.09,6179.45 12365.96,6179.45 12365.96,6768.08 12953.34,6766.83 12955.84,7359 11777.54,7359 "/>
   <polygon class="fil1" points="1859.47,4413.2 2645.42,4413.2 3038.52,4804.43 3038.52,5492.77 2450.3,5494.02 2451.21,5000.91 2054.74,5000.91 2054.19,6767.1 2450.7,6767.1 2448.94,6376.47 2254.97,6376.47 2252.47,5886.44 3038.52,5886.44 3038.52,6965.97 2645.96,7359 1860.01,7359 1467.43,6965.97 1467.43,4804.43 "/>
   <polygon class="fil1" points="3333.29,4413.2 4511.76,4413.2 4511.76,5001.11 3922.29,5001.11 3922.29,5590.28 4413.23,5590.28 4413.64,6179.45 3921.71,6179.45 3921.71,6768.08 4508.88,6766.83 4511.39,7359 3333.29,7359 "/>
   <path class="fil1" d="M5787.94 4999.76l-392.79 0 0 588.8 392.79 0 0 -588.8zm-981.96 -586.57l1178.34 0 392.35 389.88 0 687.76 -392.52 392.45 392.92 295.99 0 1179.72 -589.13 0 0 -1181.61 -392.79 0 0 1181.61 -589.17 0 0 -2945.8z"/>
   <polygon class="fil1" points="6671.68,4413.2 7261.86,4413.2 7261.86,5690.03 7704.57,4413.2 8340.96,4413.2 7800.7,5887.99 8388.38,7356.6 7753.14,7356.6 7261.86,6082.17 7261.86,7359 6671.68,7359 "/>
   <polygon class="fil1" points="8537.34,4413.2 9128.13,4413.2 9128.13,6768.08 9520.24,6768.08 9520.24,4413.2 10108.43,4413.2 10108.43,6964.35 9716.31,7359 8932.05,7359 8537.34,6964.35 "/>
   <polygon class="fil1" points="10402.99,4413.2 10992.67,4413.2 10992.67,6771.08 11581.33,6771.08 11581.33,7359 10402.99,7359 "/>
   <polygon class="fil1" points="13839.64,6377.08 13839.64,6769.83 14232.3,6769.83 14232.3,6179.28 13643.13,6081.6 13250.61,5688.61 13250.61,4817.95 13643.3,4413.2 14428.64,4413.2 14821.33,4817.95 14821.33,5394.17 14232.3,5394.17 14232.3,5002.36 13839.64,5002.36 13839.64,5590.45 14423.84,5688.61 14821.7,6082.04 14821.7,6964.35 14428.64,7359 13643.3,7359 13250.61,6964.35 13250.61,6377.08 "/>
   <polygon class="fil2" points="8831.4,3234.19 7457.73,3234.19 7457.73,1467.39 8831.4,1467.39 "/>
   <polygon class="fil2" points="9027.64,3234.76 9812.61,3234.76 9812.61,2449.01 9027.64,1663.3 "/>
   <polygon class="fil2" points="10206.62,3824.03 6082.51,3824.03 6082.51,3429.92 10206.62,3429.92 "/>
   <polygon class="fil2" points="7261.49,3234.76 6476.52,3234.76 6476.52,2449.01 7261.49,1663.3 "/>
  </g>
 </g>
</svg>
