<?xml version="1.0" encoding="UTF-8"?>
<!DOCTYPE svg PUBLIC "-//W3C//DTD SVG 1.0//EN" "http://www.w3.org/TR/2001/REC-SVG-20010904/DTD/svg10.dtd">
<!-- Creator: CorelDRAW 2018 (64-Bit) -->
<svg xmlns="http://www.w3.org/2000/svg" xml:space="preserve" width="1162px" height="321px" version="1.0" style="shape-rendering:geometricPrecision; text-rendering:geometricPrecision; image-rendering:optimizeQuality; fill-rule:evenodd; clip-rule:evenodd"
viewBox="0 0 646.89 178.68"
 xmlns:xlink="http://www.w3.org/1999/xlink">
 <defs>
  <style type="text/css">
   <![CDATA[
    .str0 {stroke:#0E1B8D;stroke-width:0.56;stroke-miterlimit:22.9256}
    .str1 {stroke:#0E1B8D;stroke-width:0.5;stroke-miterlimit:22.9256}
    .fil1 {fill:none}
    .fil0 {fill:#F45740}
    .fil2 {fill:white}
    .fil3 {fill:#0E1B8D}
    .fil4 {fill:#0E1B8D;fill-rule:nonzero}
   ]]>
  </style>
 </defs>
 <g id="Layer_x0020_1">
  <metadata id="CorelCorpID_0Corel-Layer"/>
  <path class="fil0" d="M111.26 151.38l-5.68 0 -5.68 -0.21 -5.5 -0.43 -5.5 -0.65 -5.32 -0.64 -5.32 -0.86 -5.15 -0.86 -4.97 -1.08 -4.97 -1.29 -4.79 -1.29 -4.61 -1.29 -4.62 -1.72 -4.43 -1.72 -4.08 -1.72 -4.09 -1.93 -3.9 -1.93 -3.73 -2.15 -3.37 -2.15 -3.37 -2.15 -3.19 -2.37 -2.84 -2.36 -2.66 -2.58 -2.49 -2.58 -2.3 -2.79 -1.96 -2.58 -1.77 -2.8 -1.42 -2.79 -1.24 -3.01 -1.07 -3.01 -0.71 -3.01 -0.35 -3.01 -0.18 -3.01 0.18 -3.01 0.35 -3.01 0.71 -3.01 1.07 -3.01 1.24 -3 1.42 -2.8 1.77 -2.79 1.96 -2.58 2.3 -2.8 2.49 -2.58 2.66 -2.58 2.84 -2.36 3.19 -2.36 3.37 -2.15 3.37 -2.15 3.73 -2.15 3.9 -1.94 4.09 -1.93 4.08 -1.94 4.43 -1.5 4.62 -1.72 4.61 -1.29 4.79 -1.29 4.97 -1.29 4.97 -1.07 5.15 -0.86 5.32 -0.86 5.32 -0.65 5.5 -0.64 5.5 -0.43 5.68 -0.22 5.68 0 5.86 0 5.68 0.22 5.5 0.43 5.5 0.64 5.32 0.65 5.32 0.86 5.15 0.86 4.97 1.07 4.97 1.29 4.79 1.29 4.61 1.29 4.62 1.72 4.43 1.5 4.08 1.94 4.09 1.93 3.9 1.94 3.73 2.15 3.37 2.15 3.37 2.15 3.19 2.36 2.84 2.36 2.66 2.58 2.49 2.58 2.31 2.8 1.95 2.58 1.77 2.79 1.42 2.8 1.24 3 1.07 3.01 0.71 3.01 0.35 3.01 0.18 3.01 -0.18 3.01 -0.35 3.01 -0.71 3.01 -1.07 3.01 -1.24 3.01 -1.42 2.79 -1.77 2.8 -1.95 2.58 -2.31 2.79 -2.49 2.58 -2.66 2.58 -2.84 2.36 -3.19 2.37 -3.37 2.15 -3.37 2.15 -3.73 2.15 -3.9 1.93 -4.09 1.93 -4.08 1.72 -4.43 1.72 -4.62 1.72 -4.61 1.29 -4.79 1.29 -4.97 1.29 -4.97 1.08 -5.15 0.86 -5.32 0.86 -5.32 0.64 -5.5 0.65 -5.5 0.43 -5.68 0.21 -5.86 0zm64.42 -101.88l-2.84 1.29 -2.84 1.29 -3.02 1.29 -2.84 1.29 -2.84 1.07 -3.01 1.08 -2.84 0.85 -2.84 0.86 -2.13 -3.22 -2.49 -3.22 -2.48 -2.8 -2.66 -2.79 -2.84 -2.58 -3.02 -2.15 -3.19 -2.15 -3.2 -1.72 6.21 0.86 6.04 0.86 6.03 1.29 5.68 1.29 5.68 1.5 5.32 1.72 5.15 1.94 4.97 2.15zm-27.86 10.53l-4.62 1.07 -4.61 1.08 -4.61 0.86 -4.62 0.64 -4.61 0.43 -4.62 0.43 -4.61 0.22 -4.61 0.21 -4.62 -0.21 -4.61 -0.22 -4.61 -0.21 -4.62 -0.65 -4.61 -0.64 -4.62 -0.86 -4.61 -0.86 -4.61 -1.08 1.59 -2.36 1.6 -2.36 1.95 -2.15 1.96 -1.94 2.12 -1.93 2.13 -1.94 2.13 -1.5 2.31 -1.51 2.48 -1.29 2.49 -1.29 2.48 -0.86 2.66 -0.86 2.67 -0.64 2.66 -0.65 2.84 -0.21 2.84 0 2.84 0 2.66 0.21 2.84 0.65 2.66 0.64 2.48 0.65 2.66 1.07 2.31 1.29 2.49 1.29 2.3 1.51 2.31 1.5 2.13 1.72 1.95 1.94 1.95 1.93 1.95 2.15 1.6 2.36 1.78 2.37zm-78.26 -1.08l-3.19 -0.86 -3.02 -0.85 -3.19 -1.08 -3.02 -1.07 -3.02 -1.29 -3.19 -1.29 -3.02 -1.29 -3.02 -1.29 5.15 -2.15 5.32 -2.15 5.51 -1.72 5.85 -1.72 6.04 -1.29 6.21 -1.29 6.38 -1.08 6.57 -0.64 -3.37 1.72 -3.2 2.15 -3.01 2.15 -3.02 2.58 -2.66 2.79 -2.66 3.01 -2.31 3.23 -2.13 3.43zm-30.52 -6.23l3.55 1.72 3.37 1.51 3.55 1.5 3.55 1.5 3.37 1.29 3.55 1.29 3.55 1.08 3.55 1.07 -1.25 2.58 -1.06 2.8 -0.89 2.79 -0.71 2.8 -0.71 2.79 -0.53 3.01 -0.53 3.01 -0.18 3.01 -51.82 0 0.54 -2.37 0.71 -2.58 0.88 -2.36 1.07 -2.15 1.42 -2.36 1.42 -2.37 1.6 -2.15 1.77 -2.15 2.13 -2.15 2.13 -1.93 2.31 -2.15 2.48 -1.94 2.48 -1.72 2.84 -1.93 2.84 -1.72 3.02 -1.72zm32.3 12.04l4.96 1.29 4.97 1.07 4.97 0.86 4.97 0.86 4.97 0.43 4.97 0.43 4.97 0.22 4.96 0.21 4.97 -0.21 4.97 -0.22 4.97 -0.43 4.97 -0.64 4.79 -0.65 4.97 -0.86 4.79 -1.07 4.97 -1.29 1.24 2.36 1.07 2.58 0.88 2.58 0.89 2.8 0.71 2.79 0.53 2.79 0.53 2.8 0.18 3.01 -91.21 0 0.18 -3.01 0.53 -2.8 0.53 -2.79 0.71 -2.79 0.89 -2.58 0.89 -2.58 1.06 -2.58 1.25 -2.58zm83.75 -1.51l3.37 -1.07 3.37 -1.08 3.2 -1.29 3.37 -1.29 3.37 -1.5 3.2 -1.5 3.37 -1.51 3.19 -1.72 3.2 1.72 3.01 1.72 2.84 1.93 2.66 1.72 2.49 2.15 2.48 1.94 2.13 2.15 2.13 2.15 1.78 2.15 1.77 2.15 1.42 2.36 1.42 2.37 1.06 2.36 1.07 2.36 0.71 2.37 0.53 2.58 -51.11 0 -0.35 -3.01 -0.35 -3.23 -0.54 -3.01 -0.71 -2.79 -0.88 -3.01 -0.89 -2.79 -1.07 -2.58 -1.24 -2.8zm20.59 70.08l-2.84 -1.29 -2.84 -1.51 -3.02 -1.07 -2.84 -1.29 -3.02 -1.08 -2.83 -1.07 -3.02 -1.08 -2.84 -0.86 -2.31 3.44 -2.48 3.23 -2.66 3.01 -2.84 2.79 -3.02 2.58 -3.19 2.15 -3.37 2.15 -3.38 1.72 6.39 -0.86 6.39 -1.08 6.21 -1.07 5.86 -1.29 5.85 -1.72 5.5 -1.72 5.33 -1.94 4.97 -2.14zm-28.22 -10.75l-4.43 -1.08 -4.62 -1.07 -4.61 -0.86 -4.44 -0.65 -4.61 -0.43 -4.62 -0.43 -4.61 -0.21 -4.61 -0.22 -4.62 0.22 -4.61 0 -4.61 0.43 -4.62 0.43 -4.61 0.64 -4.62 0.86 -4.61 0.86 -4.61 1.08 1.59 2.58 1.78 2.15 1.77 2.15 1.96 1.93 2.12 1.94 2.13 1.93 2.31 1.5 2.31 1.51 2.3 1.29 2.49 1.07 2.48 1.08 2.66 0.86 2.67 0.64 2.66 0.43 2.84 0.43 2.84 0 2.84 0 2.66 -0.43 2.66 -0.43 2.66 -0.64 2.66 -0.86 2.49 -0.86 2.48 -1.29 2.31 -1.29 2.31 -1.29 2.3 -1.72 2.13 -1.72 1.95 -1.72 1.96 -2.15 1.95 -2.15 1.59 -2.15 1.6 -2.36zm-77.9 0.86l-3.19 0.86 -3.2 1.07 -3.01 1.08 -3.2 1.07 -3.19 1.29 -3.02 1.08 -3.19 1.5 -3.2 1.29 5.33 2.37 5.5 1.93 5.85 1.93 6.04 1.72 6.21 1.51 6.56 1.29 6.57 0.86 6.92 0.86 -3.55 -1.72 -3.55 -2.15 -3.19 -2.37 -3.02 -2.58 -3.02 -2.79 -2.66 -3.22 -2.48 -3.44 -2.31 -3.44zm-30.88 6.45l3.55 -1.72 3.55 -1.72 3.55 -1.51 3.55 -1.29 3.55 -1.29 3.55 -1.29 3.55 -1.29 3.55 -1.07 -1.25 -2.79 -1.24 -3.23 -0.89 -3.01 -0.88 -3.22 -0.71 -3.23 -0.53 -3.44 -0.36 -3.43 -0.18 -3.44 -51.99 0 0.18 2.58 0.53 2.79 0.71 2.58 1.06 2.58 1.07 2.36 1.42 2.58 1.6 2.37 1.77 2.36 2.13 2.37 2.13 2.14 2.48 2.37 2.49 1.93 2.84 2.15 2.84 1.94 3.01 1.93 3.37 1.94zm32.66 -12.26l4.96 -1.28 4.97 -1.08 4.97 -0.86 4.97 -0.64 4.97 -0.65 4.97 -0.43 4.97 -0.21 4.96 0 4.97 0.21 4.97 0.22 4.79 0.43 4.97 0.64 4.97 0.65 4.79 1.07 4.97 1.07 4.79 1.29 1.42 -3 1.24 -2.8 1.07 -3.01 0.88 -3.22 0.71 -3.23 0.54 -3.22 0.35 -3.22 0.18 -3.44 -91.57 0 0.18 3.22 0.36 3.44 0.53 3.22 0.71 3.01 0.89 3.23 1.06 2.79 1.07 3.01 1.42 2.79zm83.57 1.72l3.38 1.08 3.37 1.29 3.37 1.07 3.37 1.51 3.37 1.29 3.2 1.72 3.37 1.5 3.37 1.72 3.37 -1.93 3.2 -1.94 3.01 -1.93 2.84 -2.15 2.66 -2.15 2.49 -2.15 2.3 -2.36 2.13 -2.37 1.96 -2.36 1.59 -2.37 1.42 -2.58 1.24 -2.58 1.07 -2.58 0.71 -2.79 0.53 -2.58 0.36 -2.79 -51.29 0 -0.18 3.44 -0.35 3.65 -0.53 3.44 -0.89 3.22 -0.89 3.44 -1.06 3.01 -1.07 3.23 -1.42 3z"/>
  <path class="fil1" d="M177.81 51.82l-2.84 1.29 -2.84 1.29 -3.01 1.29 -2.84 1.29 -2.84 1.07 -3.02 1.07 -2.84 0.86 -2.84 0.86 -2.13 -3.22 -2.48 -3.22 -2.49 -2.8 -2.66 -2.79 -2.84 -2.58 -3.01 -2.15 -3.2 -2.15 -3.19 -1.72 6.21 0.86 6.03 0.86 6.04 1.29 5.67 1.29 5.68 1.5 5.33 1.72 5.14 1.94 4.97 2.15"/>
  <path class="fil1" d="M73.47 119.95l4.97 -1.29 4.97 -1.07 4.97 -0.86 4.96 -0.65 4.97 -0.64 4.97 -0.43 4.97 -0.22 4.97 0 4.97 0.22 4.97 0.21 4.79 0.43 4.97 0.65 4.96 0.64 4.8 1.08 4.96 1.07 4.8 1.29 1.42 -3.01 1.24 -2.79 1.06 -3.01 0.89 -3.22 0.71 -3.23 0.53 -3.22 0.36 -3.23 0.17 -3.43 -91.56 0 0.18 3.22 0.35 3.44 0.53 3.22 0.71 3.01 0.89 3.23 1.07 2.79 1.06 3.01 1.42 2.79"/>
  <g id="_2976894325104">
   <path class="fil2" d="M93.9 65.35l21.03 -64.48 22.81 66.13 60.5 23.43 -62.48 26.33 -20.83 60.94 -23.41 -62.81 -58.32 -24.46 60.7 -25.08z"/>
   <path class="fil1 str0" d="M93.9 65.35l21.03 -64.48 22.81 66.13 60.5 23.43 -62.48 26.33 -20.83 60.94 -23.41 -62.81 -58.32 -24.46 60.7 -25.08"/>
   <path class="fil3 str1" d="M114.93 177.29l0 -86.86 -23.41 24.25 23.41 62.61z"/>
   <path class="fil3 str1" d="M114.93 177.29l0 -86.86 -23.41 24.25 23.41 62.61z"/>
   <path class="fil3 str1" d="M93.51 64.93l-59.91 25.5 81.33 0 -21.42 -25.5z"/>
   <path class="fil3 str1" d="M93.51 64.93l-59.91 25.5 81.33 0 -21.42 -25.5z"/>
   <path class="fil3 str1" d="M136.15 115.93l59.91 -25.5 -81.13 0 21.22 25.5z"/>
   <path class="fil3 str1" d="M136.15 115.93l61.59 -25.35 -82.81 -0.15 21.22 25.5z"/>
   <path class="fil3 str1" d="M114.93 3.78l0 86.65 23.21 -24.26 -23.21 -62.39z"/>
   <path class="fil3 str1" d="M114.97 2.85l-0.04 87.58 23.21 -24.26 -23.17 -63.32z"/>
  </g>
  <path class="fil4" d="M262.43 76.86l0 28.32 -9.55 0 0 -10.44 -8.82 0 0 10.44 -9.54 0 0 -28.32 9.54 0 0 10.04 8.82 0 0 -10.04 9.55 0zm19.42 28.97c-3.05,0 -5.79,-0.64 -8.22,-1.9 -2.42,-1.27 -4.32,-3.03 -5.7,-5.28 -1.38,-2.25 -2.06,-4.8 -2.06,-7.63 0,-2.83 0.68,-5.37 2.06,-7.62 1.38,-2.25 3.28,-4.01 5.7,-5.28 2.43,-1.27 5.17,-1.9 8.22,-1.9 3.04,0 5.78,0.63 8.21,1.9 2.43,1.27 4.33,3.03 5.7,5.28 1.38,2.25 2.06,4.79 2.06,7.62 0,2.83 -0.68,5.38 -2.06,7.63 -1.37,2.25 -3.27,4.01 -5.7,5.28 -2.43,1.26 -5.17,1.9 -8.21,1.9zm0 -7.73c1.18,0 2.25,-0.29 3.21,-0.87 0.96,-0.58 1.72,-1.4 2.29,-2.47 0.56,-1.06 0.85,-2.31 0.85,-3.74 0,-1.43 -0.29,-2.67 -0.85,-3.74 -0.57,-1.06 -1.33,-1.89 -2.29,-2.47 -0.96,-0.58 -2.03,-0.87 -3.21,-0.87 -1.19,0 -2.26,0.29 -3.22,0.87 -0.96,0.58 -1.72,1.41 -2.29,2.47 -0.56,1.07 -0.84,2.31 -0.84,3.74 0,1.43 0.28,2.68 0.84,3.74 0.57,1.07 1.33,1.89 2.29,2.47 0.96,0.58 2.03,0.87 3.22,0.87zm41.18 -7.77c1.59,0.57 2.8,1.41 3.64,2.53 0.83,1.12 1.25,2.49 1.25,4.11 0,2.53 -1,4.54 -3.01,6.01 -2.01,1.47 -4.85,2.2 -8.52,2.2l-15.13 0 0 -28.32 14.36 0c3.51,0 6.23,0.65 8.16,1.95 1.92,1.29 2.89,3.11 2.89,5.46 0,1.35 -0.32,2.53 -0.95,3.56 -0.64,1.02 -1.53,1.86 -2.69,2.5zm-12.38 -2.58l4.04 0c1.57,0 2.35,-0.69 2.35,-2.07 0,-1.43 -0.78,-2.14 -2.35,-2.14l-4.04 0 0 4.21zm5.3 10.76c1.56,0 2.34,-0.76 2.34,-2.27 0,-1.45 -0.78,-2.18 -2.34,-2.18l-5.3 0 0 4.45 5.3 0zm29.77 7.32c-3.05,0 -5.78,-0.64 -8.21,-1.9 -2.43,-1.27 -4.33,-3.03 -5.7,-5.28 -1.38,-2.25 -2.07,-4.8 -2.07,-7.63 0,-2.83 0.69,-5.37 2.07,-7.62 1.37,-2.25 3.27,-4.01 5.7,-5.28 2.43,-1.27 5.16,-1.9 8.21,-1.9 3.05,0 5.79,0.63 8.21,1.9 2.43,1.27 4.33,3.03 5.71,5.28 1.37,2.25 2.06,4.79 2.06,7.62 0,2.83 -0.69,5.38 -2.06,7.63 -1.38,2.25 -3.28,4.01 -5.71,5.28 -2.42,1.26 -5.16,1.9 -8.21,1.9zm0 -7.73c1.19,0 2.26,-0.29 3.22,-0.87 0.95,-0.58 1.72,-1.4 2.28,-2.47 0.57,-1.06 0.85,-2.31 0.85,-3.74 0,-1.43 -0.28,-2.67 -0.85,-3.74 -0.56,-1.06 -1.33,-1.89 -2.28,-2.47 -0.96,-0.58 -2.03,-0.87 -3.22,-0.87 -1.19,0 -2.26,0.29 -3.22,0.87 -0.95,0.58 -1.71,1.41 -2.28,2.47 -0.57,1.07 -0.85,2.31 -0.85,3.74 0,1.43 0.28,2.68 0.85,3.74 0.57,1.07 1.33,1.89 2.28,2.47 0.96,0.58 2.03,0.87 3.22,0.87zm33.05 -21.24c2.62,0 4.9,0.44 6.84,1.3 1.94,0.86 3.44,2.1 4.49,3.72 1.05,1.62 1.58,3.51 1.58,5.66 0,2.16 -0.53,4.05 -1.58,5.67 -1.05,1.62 -2.55,2.86 -4.49,3.72 -1.94,0.86 -4.22,1.29 -6.84,1.29l-4.09 0 0 6.96 -9.54 0 0 -28.32 13.63 0zm-0.61 14c1.3,0 2.27,-0.29 2.92,-0.87 0.64,-0.58 0.97,-1.39 0.97,-2.45 0,-1.05 -0.33,-1.86 -0.97,-2.44 -0.65,-0.58 -1.62,-0.87 -2.92,-0.87l-3.48 0 0 6.63 3.48 0zm31.19 14.97c-3.04,0 -5.78,-0.64 -8.21,-1.9 -2.43,-1.27 -4.33,-3.03 -5.7,-5.28 -1.38,-2.25 -2.07,-4.8 -2.07,-7.63 0,-2.83 0.69,-5.37 2.07,-7.62 1.37,-2.25 3.27,-4.01 5.7,-5.28 2.43,-1.27 5.17,-1.9 8.21,-1.9 3.05,0 5.79,0.63 8.21,1.9 2.43,1.27 4.33,3.03 5.71,5.28 1.37,2.25 2.06,4.79 2.06,7.62 0,2.83 -0.69,5.38 -2.06,7.63 -1.38,2.25 -3.28,4.01 -5.71,5.28 -2.42,1.26 -5.16,1.9 -8.21,1.9zm0 -7.73c1.19,0 2.26,-0.29 3.22,-0.87 0.96,-0.58 1.72,-1.4 2.28,-2.47 0.57,-1.06 0.85,-2.31 0.85,-3.74 0,-1.43 -0.28,-2.67 -0.85,-3.74 -0.56,-1.06 -1.32,-1.89 -2.28,-2.47 -0.96,-0.58 -2.03,-0.87 -3.22,-0.87 -1.18,0 -2.26,0.29 -3.21,0.87 -0.96,0.58 -1.72,1.41 -2.29,2.47 -0.57,1.07 -0.85,2.31 -0.85,3.74 0,1.43 0.28,2.68 0.85,3.74 0.57,1.07 1.33,1.89 2.29,2.47 0.95,0.58 2.03,0.87 3.21,0.87zm33.66 7.73c-2.99,0 -5.69,-0.63 -8.09,-1.88 -2.4,-1.26 -4.28,-3.01 -5.64,-5.26 -1.37,-2.25 -2.05,-4.81 -2.05,-7.67 0,-2.86 0.68,-5.41 2.05,-7.66 1.36,-2.25 3.24,-4.01 5.64,-5.26 2.4,-1.26 5.1,-1.88 8.09,-1.88 2.75,0 5.2,0.48 7.36,1.45 2.16,0.97 3.94,2.38 5.34,4.21l-6.03 5.38c-1.75,-2.21 -3.81,-3.32 -6.19,-3.32 -1.99,0 -3.6,0.64 -4.81,1.93 -1.21,1.28 -1.82,2.99 -1.82,5.15 0,2.16 0.61,3.88 1.82,5.16 1.21,1.28 2.82,1.92 4.81,1.92 2.38,0 4.44,-1.1 6.19,-3.31l6.03 5.37c-1.4,1.84 -3.18,3.24 -5.34,4.21 -2.16,0.97 -4.61,1.46 -7.36,1.46zm40.86 -0.65l-0.08 -12.9 -6.15 10.35 -4.21 0 -6.15 -9.91 0 12.46 -8.7 0 0 -28.32 7.85 0 9.22 15.09 8.99 -15.09 7.84 0 0.08 28.32 -8.69 0zm37.21 -7.2l0 7.2 -23.54 0 0 -28.32 23.02 0 0 7.2 -13.64 0 0 3.32 11.98 0 0 6.88 -11.98 0 0 3.72 14.16 0zm28 -13.71l-8.3 0 0 20.91 -9.38 0 0 -20.91 -8.3 0 0 -7.41 25.98 0 0 7.41zm23.13 15.98l-10.76 0 -1.9 4.93 -9.71 0 12.38 -28.32 9.39 0 12.38 28.32 -9.87 0 -1.91 -4.93zm-2.62 -6.88l-2.76 -7.12 -2.75 7.12 5.51 0zm44.66 -16.51l0 28.32 -9.39 0 0 -20.91 -6.47 0 -0.08 3.27c-0.11,4.05 -0.43,7.37 -0.97,9.96 -0.54,2.58 -1.49,4.6 -2.84,6.04 -1.34,1.45 -3.27,2.17 -5.78,2.17 -1.27,0 -2.62,-0.18 -4.05,-0.53l0.49 -7.64c0.35,0.08 0.7,0.12 1.05,0.12 1,0 1.76,-0.41 2.29,-1.22 0.52,-0.81 0.88,-1.88 1.07,-3.23 0.19,-1.35 0.32,-3.12 0.4,-5.3l0.37 -11.05 23.91 0zm32.64 0l0 28.32 -9.38 0 0 -20.91 -6.48 0 -0.08 3.27c-0.11,4.05 -0.43,7.37 -0.97,9.96 -0.54,2.58 -1.48,4.6 -2.83,6.04 -1.35,1.45 -3.28,2.17 -5.78,2.17 -1.27,0 -2.62,-0.18 -4.05,-0.53l0.49 -7.64c0.35,0.08 0.7,0.12 1.05,0.12 0.99,0 1.76,-0.41 2.28,-1.22 0.53,-0.81 0.89,-1.88 1.07,-3.23 0.19,-1.35 0.33,-3.12 0.41,-5.3l0.36 -11.05 23.91 0z"/>
 </g>
</svg>
