<svg xmlns="http://www.w3.org/2000/svg" xml:space="preserve" width="34.6mm" height="33.6mm" fill-rule="evenodd" stroke-linejoin="round" stroke-width="28.222" preserveAspectRatio="xMidYMid" version="1.2" viewBox="0 0 3460 3360"><defs class="ClipPathGroup"><clipPath id="a" clipPathUnits="userSpaceOnUse"><path d="M0 0h3460v3360H0z"/></clipPath></defs><g class="SlideGroup"><g class="Slide" clip-path="url(#a)"><g class="Page"><g class="com.sun.star.drawing.ClosedBezierShape"><path fill="none" d="M1432 1643h295v1704h-295z" class="BoundingBox"/><path fill="#242FA5" d="m1725 1643-9 1699c0 5-6 5-7 1l-277-1408 293-292Z"/></g><g class="com.sun.star.drawing.ClosedBezierShape"><path fill="none" d="M1708 1661h329v1699h-329z" class="BoundingBox"/><path fill="#242FA5" d="m1754 1726-6 1413 247-1198-241-215Zm-26 1633h-2c-10-1-18-9-18-20l6-1658c0-7 5-15 12-18s16-2 21 4l283 252c5 5 7 12 6 19l-289 1406c-2 9-10 15-19 15Z"/></g><g class="com.sun.star.drawing.ClosedBezierShape"><path fill="none" d="M1708 1341h1754v335H1708z" class="BoundingBox"/><path fill="#242FA5" d="m2042 1382-263 251 1465-28-1202-223Zm-313 292c-8 0-15-5-19-12-3-8-1-17 5-22l307-294c5-4 11-6 17-5l1404 260c11 2 18 11 17 21-1 11-10 18-20 19l-1711 33Z"/></g><g class="com.sun.star.drawing.ClosedBezierShape"><path fill="none" d="M1409 0h349v1702h-349z" class="BoundingBox"/><path fill="#242FA5" d="m1451 1368 264 264-33-1430-231 1166Zm285 333c-5 0-10-2-14-6l-307-307c-4-5-7-11-5-18L1678 16c2-10 11-16 22-16 10 1 18 10 18 20l38 1661c0 8-4 15-12 18-2 1-5 2-8 2Z"/></g><g class="com.sun.star.drawing.ClosedBezierShape"><path fill="none" d="M50 1629h1700v326H50z" class="BoundingBox"/><path fill="#242FA5" d="m278 1671 1179 241 225-224-1404-17Zm1186 283c-2 0-3 0-4-1L66 1668c-10-2-17-11-16-21 1-11 10-18 20-18l1659 19c8 1 16 5 19 13 3 7 1 16-5 21l-265 266c-4 4-9 6-14 6Z"/></g><g class="com.sun.star.drawing.ClosedBezierShape"><path fill="none" d="M742 1915h812v774H742z" class="BoundingBox"/><path fill="#242FA5" d="m1426 1972-549 600 631-399-82-201Zm-664 716c-6 0-11-3-15-7-7-8-6-19 0-26l671-733c4-5 11-8 18-6 7 1 12 5 15 12l100 246c3 8 0 19-8 24l-770 487c-4 2-7 3-11 3Z"/></g><g class="com.sun.star.drawing.ClosedBezierShape"><path fill="none" d="M1012 962h437v579h-437z" class="BoundingBox"/><path fill="#242FA5" d="m1080 1042 293 454 46-123-339-331Zm297 497c-5 0-9-3-11-6l-351-544c-5-8-4-18 3-23 7-6 17-6 23 1l403 393c4 3 5 9 3 14l-58 156c-2 5-6 8-11 9h-1Z"/></g><g class="com.sun.star.drawing.ClosedBezierShape"><path fill="none" d="M1770 660h923v719h-923z" class="BoundingBox"/><path fill="#242FA5" d="m1825 1200 164 132 558-555-722 423Zm165 178c-4 0-8-1-12-4l-200-161c-5-4-8-11-7-17 0-7 4-12 10-16l881-517c9-5 20-3 26 5 6 9 5 20-2 27l-682 678c-3 4-8 5-14 5Z"/></g><g class="com.sun.star.drawing.ClosedBezierShape"><path fill="none" d="M74 1357h1655v304H74z" class="BoundingBox"/><path fill="#242FA5" d="M1727 1660 81 1639c-8 0-9-12-2-13l1344-269 304 303Z"/></g><g class="com.sun.star.drawing.PolyPolygonShape"><path fill="none" d="M1716 15h322v1645h-322z" class="BoundingBox"/><path fill="#242FA5" d="M1730 1659 1716 15l321 1347-307 297Z"/></g><g class="com.sun.star.drawing.ClosedBezierShape"><path fill="none" d="M1025 955h431v389h-431z" class="BoundingBox"/><path fill="#242FA5" d="m1427 1343-399-374c-7-7 1-17 9-13l417 232-27 155Z"/></g><g class="com.sun.star.drawing.ClosedBezierShape"><path fill="none" d="M1994 1769h372v539h-372z" class="BoundingBox"/><path fill="#242FA5" d="m2024 1937 279 293-234-416-45 123Zm314 356 1 1-1-1Zm9 14c-5 0-9-2-13-5l-335-353c-4-4-5-9-3-14l58-157c2-5 6-8 11-9 6 0 10 3 13 7l284 505c4 6 3 16-4 22-4 2-8 4-11 4Z"/></g><g class="com.sun.star.drawing.ClosedBezierShape"><path fill="none" d="M1987 1965h371v345h-371z" class="BoundingBox"/><path fill="#242FA5" d="m2015 1965 339 330c7 7-1 17-9 13l-357-187 27-156Z"/></g><g class="com.sun.star.drawing.PolyPolygonShape"><path fill="none" d="M1998 687h694v708h-694z" class="BoundingBox"/><path fill="#242FA5" d="m2691 687-692 663 214 43 478-706Z"/></g><g class="com.sun.star.drawing.PolyPolygonShape"><path fill="none" d="M742 1888h686v781H742z" class="BoundingBox"/><path fill="#242FA5" d="m742 2668 684-736-205-44-479 780Z"/></g><g class="com.sun.star.drawing.PolyPolygonShape"><path fill="none" d="M1706 1641h1739v294H1706z" class="BoundingBox"/><path fill="#242FA5" d="m1706 1646 1738-5-1429 293-309-288Z"/></g><g class="com.sun.star.drawing.ClosedBezierShape"><path fill="none" d="M631 1846h232v467H631z" class="BoundingBox"/><path fill="#FE0000" d="M842 2312c-6 0-12-3-16-8-96-130-162-276-194-434-2-11 5-21 16-23 10-3 21 4 23 15 32 152 95 293 187 419 6 8 4 21-5 27-3 3-7 4-11 4Z"/></g><g class="com.sun.star.drawing.ClosedBezierShape"><path fill="none" d="M1127 2555h382v179h-382z" class="BoundingBox"/><path fill="#FE0000" d="M1489 2732h-5c-122-27-241-74-348-141-9-5-12-18-6-27 5-9 18-12 27-7 103 64 218 111 336 136 10 2 17 13 15 24-2 9-10 15-19 15Z"/></g><g class="com.sun.star.drawing.ClosedBezierShape"><path fill="none" d="M2563 963h230v420h-230z" class="BoundingBox"/><path fill="#FE0000" d="M2772 1382c-9 0-17-6-19-15-36-134-99-260-185-372-7-8-5-21 4-28 8-6 21-5 28 4 88 116 154 246 191 386 3 11-3 22-14 24-1 1-3 1-5 1Z"/></g><g class="com.sun.star.drawing.ClosedBezierShape"><path fill="none" d="M1908 557h429v199h-429z" class="BoundingBox"/><path fill="#FE0000" d="M2316 754c-4 0-8-1-11-3-116-76-244-128-381-155-10-2-17-12-15-23 2-12 12-18 23-16 142 28 274 82 394 161 10 6 12 18 6 27-4 6-10 9-16 9Z"/></g><g class="com.sun.star.drawing.ClosedBezierShape"><path fill="none" d="M631 568h848v882H631z" class="BoundingBox"/><path fill="#FE0000" d="M652 1448c-2 0-3 0-4-1-11-2-18-12-16-23 85-417 408-753 821-855 11-2 21 4 24 15 3 10-4 21-15 24-398 99-709 422-791 824-2 9-10 16-19 16Z"/></g><g class="com.sun.star.drawing.ClosedBezierShape"><path fill="none" d="M1102 714h322v42h-322z" class="BoundingBox"/><path fill="#FE0000" d="M1402 755h-280c-11 0-20-9-20-20 0-12 9-21 20-21h280c11 0 20 9 20 21 0 11-9 20-20 20Z"/></g><g class="com.sun.star.drawing.ClosedBezierShape"><path fill="none" d="M2020 714h310v42h-310z" class="BoundingBox"/><path fill="#FE0000" d="M2310 755h-269c-11 0-20-9-20-20 0-12 9-21 20-21h269c11 0 19 9 19 21 0 11-8 20-19 20Z"/></g><g class="com.sun.star.drawing.ClosedBezierShape"><path fill="none" d="M720 1173h309v41H720z" class="BoundingBox"/><path fill="#FE0000" d="M1007 1213H740c-11 0-20-8-20-20 0-11 9-20 20-20h267c11 0 20 9 20 20 0 12-9 20-20 20Z"/></g><g class="com.sun.star.drawing.ClosedBezierShape"><path fill="none" d="M2458 1173h252v41h-252z" class="BoundingBox"/><path fill="#FE0000" d="M2690 1213h-211c-11 0-20-8-20-20 0-11 9-20 20-20h211c11 0 19 9 19 20 0 12-8 20-19 20Z"/></g><g class="com.sun.star.drawing.ClosedBezierShape"><path fill="none" d="M671 1980h323v42H671z" class="BoundingBox"/><path fill="#FE0000" d="M972 2021H690c-11 0-19-10-19-21s8-20 19-20h282c11 0 20 9 20 20s-9 21-20 21Z"/></g><g class="com.sun.star.drawing.ClosedBezierShape"><path fill="none" d="M1209 714h225v214h-225z" class="BoundingBox"/><path fill="#FE0000" d="M1230 926c-3 0-7 0-10-2-10-5-14-17-9-27 71-135 190-180 196-182 10-4 21 1 25 11 4 11-1 22-12 26-1 0-110 42-171 163-4 7-11 11-19 11Z"/></g><g class="com.sun.star.drawing.ClosedBezierShape"><path fill="none" d="M957 1913h77v165h-77z" class="BoundingBox"/><path fill="#FE0000" d="M1012 2077c-6 0-12-3-16-8-39-48-39-132-39-136 0-11 9-20 20-20s19 9 19 20c0 1 1 74 32 111 7 9 5 21-3 28-4 3-8 5-13 5Z"/></g><g class="com.sun.star.drawing.ClosedBezierShape"><path fill="none" d="M2580 1846h232v467h-232z" class="BoundingBox"/><path fill="#FE0000" d="M2600 2311c-4 0-8-1-12-4-8-6-10-19-4-27 92-126 156-267 187-419 2-11 13-17 23-15 11 2 18 12 16 23-32 158-98 304-194 434-4 5-10 8-16 8Z"/></g><g class="com.sun.star.drawing.ClosedBezierShape"><path fill="none" d="M1960 2555h383v179h-383z" class="BoundingBox"/><path fill="#FE0000" d="M1981 2732c-9 0-18-6-20-15-2-11 5-22 16-24 118-25 231-72 334-136 10-5 22-2 28 7 5 9 3 22-7 27-107 67-223 114-347 141h-4Z"/></g><g class="com.sun.star.drawing.ClosedBezierShape"><path fill="none" d="M2449 1980h323v42h-323z" class="BoundingBox"/><path fill="#FE0000" d="M2752 2021h-281c-12 0-21-10-21-21s9-20 21-20h281c11 0 19 9 19 20s-8 21-19 21Z"/></g><g class="com.sun.star.drawing.ClosedBezierShape"><path fill="none" d="M2409 1913h78v165h-78z" class="BoundingBox"/><path fill="#FE0000" d="M2430 2077c-5 0-9-2-13-5-8-7-11-19-3-28 30-37 30-110 30-111 0-11 9-20 20-20s21 9 21 20c0 4 0 88-40 136-4 5-9 8-15 8Z"/></g><g class="com.sun.star.drawing.ClosedBezierShape"><path fill="none" d="M2012 2376h234v120h-234z" class="BoundingBox"/><path fill="#FE0000" d="M2032 2495c-10 0-19-8-19-18-1-11 7-21 18-22 100-7 180-74 181-74 8-7 20-6 28 2 7 8 6 21-3 28-3 3-90 77-203 84h-2Z"/></g></g></g></g></svg>